<?xml version="1.0" encoding="utf-8"?>
<!-- Generator: Adobe Illustrator 21.0.2, SVG Export Plug-In . SVG Version: 6.00 Build 0)  -->
<svg version="1.0" id="Capa_1" xmlns="http://www.w3.org/2000/svg" xmlns:xlink="http://www.w3.org/1999/xlink" x="0px" y="0px"
	 width="2627.1px" height="1756.9px" viewBox="0 0 2627.1 1756.9" enable-background="new 0 0 2627.1 1756.9" xml:space="preserve">
<circle fill="#EF9A9A" cx="459.2" cy="440.6" r="388"/>
<g>
	<defs>
		<circle id="SVGID_1_" cx="459.2" cy="440.6" r="388"/>
	</defs>
	<clipPath id="SVGID_2_">
		<use xlink:href="#SVGID_1_"  overflow="visible"/>
	</clipPath>
	<g clip-path="url(#SVGID_2_)">
		<g>
			<path fill="#B7895C" d="M313.6,584.6c0,0-90.3,47.7-138.4,113.3c0,0-53,13.9-94.3,24.6V786h377V664.1L313.6,584.6z"/>
			<path fill="#CA9E67" d="M328.9,508.3c0,0-21.3,121-44.8,184.8c-4.1,11.2,2.2,23.5,13.7,26.6c33.2,9,98.7,24.3,160.1,24.3V618
				L328.9,508.3z"/>
			<path fill="#A07752" d="M442,744c0,0-76.9-21.5-82-92.3c0,0-6.8,44.3,9.6,78.1c2.8,5.8,8.4,9.9,14.8,10.9
				C396.5,742.5,418.3,745.1,442,744z"/>
			<path fill="#DBAA79" d="M356.4,731.2c0,0-22.4,20.6-62.4,12.8c-40.1-7.8-143-20.4-163,42s326.9,37.8,326.9,37.8
				s5.2-47.2-5.3-59.4C442,752.2,391.9,768,356.4,731.2z"/>
		</g>
		<g>
			<path fill="#E8B57E" d="M602.2,584.6c0,0,90.3,47.7,138.4,113.3c0,0,53,13.9,94.3,24.6V786h-377V664.1L602.2,584.6z"/>
			<path fill="#B7895C" d="M611.9,626.2c0,0,54.9,21.5,95.4,83c0,0-95.5,35.9-147.9,24.1L611.9,626.2z"/>
			<path fill="#FAC98E" d="M586.9,508.3c0,0,21.3,121,44.8,184.8c4.1,11.2-2.2,23.5-13.7,26.6c-33.2,9-98.7,24.3-160.1,24.3V618
				L586.9,508.3z"/>
			<path fill="#B7895C" d="M589.9,525.7c0,0-19.4,102.9-132,133.2v-41L589.9,525.7z"/>
			<path fill="#B7895C" d="M483,744c0,0,59.8-16.8,63.8-71.9c0,0,5.3,34.5-7.5,60.8c-2.2,4.6-6.6,7.7-11.6,8.5
				C518.5,742.9,501.5,744.9,483,744z"/>
			<path fill="#FAC98E" d="M559.4,731.2c0,0,22.4,20.6,62.4,12.8c40.1-7.8,143-20.4,163,42s-326.9,37.8-326.9,37.8
				s-5.2-47.2,5.3-59.4C473.8,752.2,523.9,768,559.4,731.2z"/>
		</g>
		<path fill="#A07752" d="M282.5,698l43.5-172.2l30.5-17.4l-2.1,37.2L457.9,618v41c-38.6-10.4-66.2-29.3-85.9-49.7
			c-12-12.5-32.4-11.2-42.5,3C316.1,630.9,298.7,659.3,282.5,698z"/>
		<path fill="#B7895C" d="M457.9,823.8c0,0-19.3-71.2,66-71.2C523.9,752.6,466.2,782.6,457.9,823.8z"/>
		<path fill="#A07752" d="M457.9,823.8c0,0,19.3-71.2-66-71.2C391.9,752.6,449.6,782.6,457.9,823.8z"/>
	</g>
	<g clip-path="url(#SVGID_2_)">
		<path fill="#2A3852" d="M473.7,154.4c81.8,0,148.1,66.3,148.1,148.1v114.7c0,42.4-13.4,83.8-38.4,118
			c-31.5,43.1-78.5,93.5-125.5,93.5V268.5V154.4H473.7z"/>
		<path fill="#222E42" d="M442.1,154.4c-81.8,0-148.1,66.3-148.1,148.1v114.7c0,42.4,13.4,83.8,38.4,118
			c31.5,43.1,78.5,93.5,125.5,93.5V268.5V154.4H442.1z"/>
		<path fill="#C9CFCD" d="M457.9,325.4c0,0,23.4,15.9,41.1-7.1s37.9-25.3,37.9-25.3s-20.8,34.8,7.3,43.2
			c28.1,8.4,49.5-21.6,31.9-62.4c0,0,41.7,32.7,30.3,78.7c-5.6,22.5-5.2,43-3.4,58.1c2,16.4-8.2,31.9-24.5,37.6
			c-16.7,5.8-37.4,11.5-54.2,11.5c0,0,18.9,22.3,1.3,36.9c0,0,40.4,25.4,7.6,58.4c-32.8,33-75.2,29.4-75.2,29.4V325.4z"/>
		<path fill="#17252D" d="M576.1,379.8c0-7.2-7.4-12.3-14.6-10.1c-18.8,5.7-51.5,14.5-72.6,14.5c-25.5,0-11.6,11.4-7.3,25.4
			c1.7,5.5,7,9.4,13,9.4h70.2c6.2,0,11.2-4.8,11.2-10.6V379.8z"/>
		<path fill="#2A3852" d="M457.9,429.2c0,0,37.3,24.5,38.6,52.1c0,0-17.8,15.6-38.6,15.6V429.2z"/>
		<path fill="#A7AFAC" d="M457.9,325.4c0,0-23.4,15.9-41.1-7.1s-37.9-25.3-37.9-25.3s20.8,34.8-7.3,43.2
			c-28.1,8.4-49.5-21.6-31.9-62.4c0,0-41.7,32.7-30.3,78.7c5.6,22.5,5.2,43,3.4,58.1c-2,16.4,8.2,31.9,24.5,37.6
			c16.7,5.8,37.4,11.5,54.2,11.5c0,0-18.9,22.3-1.3,36.9c0,0-40.4,25.4-7.6,58.4c32.8,33,75.2,29.4,75.2,29.4V325.4z"/>
		<path fill="#17252D" d="M339.7,379.8c0-7.2,7.4-12.3,14.6-10.1c18.8,5.7,51.5,14.5,72.6,14.5c25.5,0,11.6,11.4,7.3,25.4
			c-1.7,5.5-7,9.4-13,9.4h-70.2c-6.2,0-11.2-4.8-11.2-10.6V379.8z"/>
		<path fill="#222E42" d="M457.9,429.2c0,0-37.3,24.5-38.6,52.1c0,0,17.8,15.6,38.6,15.6V429.2z"/>
		<path fill="#17252D" d="M457.9,525.7h46.7c6,0,10.8,4.8,10.8,10.8v0c0,6-4.8,10.8-10.8,10.8h-46.7h-46.7c-6,0-10.8-4.8-10.8-10.8
			v0c0-6,4.8-10.8,10.8-10.8H457.9z"/>
		<path fill="#17252D" d="M472,488.7l20.2-4.1c0,0-15.1,11.7-34.3,12.3c-19.1-0.6-34.3-12.3-34.3-12.3l20.2,4.1
			C453.1,490.6,462.7,490.6,472,488.7z"/>
	</g>
</g>
<ellipse fill="#B39DDB" cx="1304.1" cy="440.6" rx="384.1" ry="388"/>
<g>
	<defs>
		<ellipse id="SVGID_3_" cx="1304.1" cy="440.6" rx="384.1" ry="388"/>
	</defs>
	<clipPath id="SVGID_4_">
		<use xlink:href="#SVGID_3_"  overflow="visible"/>
	</clipPath>
	<g clip-path="url(#SVGID_4_)">
		<g>
			<path fill="#B7895C" d="M1160,584.6c0,0-89.4,47.7-137,113.3c0,0-52.5,13.9-93.3,24.6V786h373.2V664.1L1160,584.6z"/>
			<path fill="#CA9E67" d="M1175.1,508.3c0,0-21,121-44.3,184.8c-4.1,11.2,2.2,23.5,13.5,26.6c32.9,9,97.7,24.3,158.5,24.3V618
				L1175.1,508.3z"/>
			<path fill="#A07752" d="M1287.2,744c0,0-76.1-21.5-81.1-92.3c0,0-6.7,44.3,9.5,78.1c2.8,5.8,8.3,9.9,14.7,10.9
				C1242,742.5,1263.6,745.1,1287.2,744z"/>
			<path fill="#DBAA79" d="M1202.4,731.2c0,0-22.1,20.6-61.8,12.8c-39.7-7.8-141.6-20.4-161.4,42s323.6,37.8,323.6,37.8
				s5.2-47.2-5.3-59.4C1287.2,752.2,1237.5,768,1202.4,731.2z"/>
		</g>
		<g>
			<path fill="#E8B57E" d="M1445.7,584.6c0,0,89.4,47.7,137,113.3c0,0,52.5,13.9,93.3,24.6V786h-373.2V664.1L1445.7,584.6z"/>
			<path fill="#B7895C" d="M1455.3,626.2c0,0,54.4,21.5,94.4,83c0,0-94.6,35.9-146.4,24.1L1455.3,626.2z"/>
			<path fill="#FAC98E" d="M1430.6,508.3c0,0,21,121,44.3,184.8c4.1,11.2-2.2,23.5-13.5,26.6c-32.9,9-97.7,24.3-158.5,24.3V618
				L1430.6,508.3z"/>
			<path fill="#B7895C" d="M1433.5,525.7c0,0-19.2,102.9-130.7,133.2v-41L1433.5,525.7z"/>
			<path fill="#B7895C" d="M1327.7,744c0,0,59.2-16.8,63.2-71.9c0,0,5.2,34.5-7.4,60.8c-2.2,4.6-6.5,7.7-11.4,8.5
				C1362.8,742.9,1346,744.9,1327.7,744z"/>
			<path fill="#FAC98E" d="M1403.3,731.2c0,0,22.1,20.6,61.8,12.8c39.7-7.8,141.6-20.4,161.4,42c19.8,62.4-323.6,37.8-323.6,37.8
				s-5.2-47.2,5.3-59.4C1318.6,752.2,1368.2,768,1403.3,731.2z"/>
		</g>
		<path fill="#A07752" d="M1129.2,698l43-172.2l30.2-17.4l-2.1,37.2l102.6,72.4v41c-38.2-10.4-65.5-29.3-85-49.7
			c-11.9-12.5-32.1-11.2-42.1,3C1162.5,630.9,1145.3,659.3,1129.2,698z"/>
		<path fill="#B7895C" d="M1302.9,823.8c0,0-19.1-71.2,65.3-71.2C1368.2,752.6,1311,782.6,1302.9,823.8z"/>
		<path fill="#A07752" d="M1302.9,823.8c0,0,19.1-71.2-65.3-71.2C1237.5,752.6,1294.7,782.6,1302.9,823.8z"/>
	</g>
	<g clip-path="url(#SVGID_4_)">
		<path fill="#2FAC66" d="M1319.8,153.5c81,0,146.6,66.3,146.6,148.1v114.7c0,42.4-13.2,83.8-38,118
			c-31.2,43.1-77.7,93.5-124.2,93.5V267.6V153.5H1319.8z"/>
		<path fill="#2A9354" d="M1288.5,153.5c-81,0-146.6,66.3-146.6,148.1v114.7c0,42.4,13.2,83.8,38,118
			c31.2,43.1,77.7,93.5,124.2,93.5V267.6V153.5H1288.5z"/>
		<path fill="#E4CB26" d="M1304.1,300.6v286.6c30.3,0,43.3-24,43.3-24l19,24c0,0-9.5-26.4,43.9-58.8c53.4-32.4,47.7-94.7,47.7-94.7
			c-33,24-35.8,55.8-35.8,55.8s-24.9-24.6,15.4-67.8s8.3-93.5,8.3-93.5s3.6,72-24.9,50.4c-28.5-21.6,7.1-84,5.9-111.5
			c-1.2-27.6-21.4-45.6-21.4-45.6s7.1,32.4-15.4,52.8s-55.8,21.6-51.1,70.8L1304.1,300.6z M1346.2,507.3c27-15.3,13.8-27,25.5-44.9
			c11.7-17.9,33.1-16.7,33.1-16.7C1388.7,510.2,1346.2,507.3,1346.2,507.3z"/>
		<path fill="#2C3A49" d="M1385.3,343.8c0,0-16.4,34.9-42.5,56.4c-26.1,21.5,5.9,37.6,5.9,37.6s1.4-10.1,10.2-13.7
			C1367.7,420.6,1439.7,411,1385.3,343.8z"/>
		<path fill="#2FAC66" d="M1304.1,459.5v39c23.1,0,36.2-9,36.2-9c-7.1-34.2-36.2-57-36.2-57V459.5z"/>
		<path fill="#2C3A49" d="M1304.1,526.1c0,0,29.5,0,53.5-6c5.9-1.5,11.5,3,11.5,9.1l0,0c0,4-2.5,7.5-6.2,8.8
			c-12.1,4.3-39.5,13.3-58.8,13.3V526.1z"/>
		<path fill="#2C3A49" d="M1304.1,498.5v-11.3l29.7,5.6C1333.8,492.9,1318.7,497.2,1304.1,498.5z"/>
		<path fill="#E4CB26" d="M1269.1,345c4.7-49.2-28.5-50.4-51.1-70.8c-22.6-20.4-15.4-52.8-15.4-52.8s-20.2,18-21.4,45.6
			s34.4,89.9,5.9,111.5s-24.9-50.4-24.9-50.4s-32.1,50.4,8.3,93.5s15.4,67.8,15.4,67.8s-2.8-31.8-35.8-55.8c0,0-5.7,62.4,47.7,94.7
			c53.4,32.4,43.9,58.8,43.9,58.8l19-24c0,0,13.1,24,43.3,24V300.6L1269.1,345z M1203.4,445.7c0,0,21.3-1.2,33.1,16.7
			c11.7,17.9-1.5,29.7,25.5,44.9C1262,507.3,1219.6,510.2,1203.4,445.7z"/>
		<path fill="#2C3A49" d="M1223,343.8c0,0,16.4,34.9,42.5,56.4c26.1,21.5-5.9,37.6-5.9,37.6s-1.4-10.1-10.2-13.7
			C1240.6,420.6,1168.6,411,1223,343.8z"/>
		<path fill="#2A9354" d="M1304.1,459.5v39c-23.1,0-36.2-9-36.2-9c7.1-34.2,36.2-57,36.2-57V459.5z"/>
		<path fill="#2C3A49" d="M1304.1,526.1c0,0-29.5,0-53.5-6c-5.9-1.5-11.5,3-11.5,9.1l0,0c0,4,2.5,7.5,6.2,8.8
			c12.1,4.3,39.5,13.3,58.8,13.3V526.1z"/>
		<path fill="#2C3A49" d="M1304.1,498.5v-11.3l-29.7,5.6C1274.4,492.9,1289.5,497.2,1304.1,498.5z"/>
		<path fill="#2A9354" d="M1393.2,336.3l-7.6-12.6c0,0-13.8,19.6-25.4,25.1c0,0-5-5.3,9.1-25.1c14.1-19.8,33.7-18.4,40.8-43.4
			C1410.1,280.3,1407.2,311.9,1393.2,336.3z"/>
		<path fill="#2A9354" d="M1215.1,336.3l7.6-12.6c0,0,13.8,19.6,25.4,25.1c0,0,5-5.3-9.1-25.1c-14.1-19.8-33.7-18.4-40.8-43.4
			C1198.2,280.3,1201.1,311.9,1215.1,336.3z"/>
		<path fill="#2FAC66" d="M1304.1,344.4l18.1,30.6c0,0-12.2,10.8-18.1,30V344.4z"/>
		<path fill="#2A9354" d="M1304.1,344.4L1286,375c0,0,12.2,10.8,18.1,30V344.4z"/>
	</g>
</g>
<circle fill="#64B5F6" cx="2170.8" cy="440.6" r="388"/>
<g>
	<defs>
		<circle id="SVGID_5_" cx="2170.8" cy="440.6" r="388"/>
	</defs>
	<clipPath id="SVGID_6_">
		<use xlink:href="#SVGID_5_"  overflow="visible"/>
	</clipPath>
	<g clip-path="url(#SVGID_6_)">
		<g>
			<path fill="#B7895C" d="M2025.3,584.6c0,0-90.3,47.7-138.4,113.3c0,0-53,13.9-94.3,24.6V786h377V664.1L2025.3,584.6z"/>
			<path fill="#CA9E67" d="M2040.5,508.3c0,0-21.3,121-44.8,184.8c-4.1,11.2,2.2,23.5,13.7,26.6c33.2,9,98.7,24.3,160.1,24.3V618
				L2040.5,508.3z"/>
			<path fill="#A07752" d="M2153.7,744c0,0-76.9-21.5-82-92.3c0,0-6.8,44.3,9.6,78.1c2.8,5.8,8.4,9.9,14.8,10.9
				C2108.1,742.5,2129.9,745.1,2153.7,744z"/>
			<path fill="#DBAA79" d="M2068.1,731.2c0,0-22.4,20.6-62.4,12.8c-40.1-7.8-143-20.4-163,42c-20,62.4,326.9,37.8,326.9,37.8
				s5.2-47.2-5.3-59.4C2153.7,752.2,2103.6,768,2068.1,731.2z"/>
		</g>
		<g>
			<path fill="#E8B57E" d="M2313.8,584.6c0,0,90.3,47.7,138.4,113.3c0,0,53,13.9,94.3,24.6V786h-377V664.1L2313.8,584.6z"/>
			<path fill="#B7895C" d="M2323.6,626.2c0,0,54.9,21.5,95.4,83c0,0-95.5,35.9-147.9,24.1L2323.6,626.2z"/>
			<path fill="#FAC98E" d="M2298.6,508.3c0,0,21.3,121,44.8,184.8c4.1,11.2-2.2,23.5-13.7,26.6c-33.2,9-98.7,24.3-160.1,24.3V618
				L2298.6,508.3z"/>
			<path fill="#B7895C" d="M2301.5,525.7c0,0-19.4,102.9-132,133.2v-41L2301.5,525.7z"/>
			<path fill="#B7895C" d="M2194.6,744c0,0,59.8-16.8,63.8-71.9c0,0,5.3,34.5-7.5,60.8c-2.2,4.6-6.6,7.7-11.6,8.5
				C2230.1,742.9,2213.2,744.9,2194.6,744z"/>
			<path fill="#FAC98E" d="M2271,731.2c0,0,22.4,20.6,62.4,12.8c40.1-7.8,143-20.4,163,42c20,62.4-326.9,37.8-326.9,37.8
				s-5.2-47.2,5.3-59.4C2185.4,752.2,2235.5,768,2271,731.2z"/>
		</g>
		<path fill="#A07752" d="M1994.1,698l43.5-172.2l30.5-17.4l-2.1,37.2l103.6,72.4v41c-38.6-10.4-66.2-29.3-85.9-49.7
			c-12-12.5-32.4-11.2-42.5,3C2027.8,630.9,2010.4,659.3,1994.1,698z"/>
		<path fill="#B7895C" d="M2169.5,823.8c0,0-19.3-71.2,66-71.2C2235.5,752.6,2177.8,782.6,2169.5,823.8z"/>
		<path fill="#A07752" d="M2169.5,823.8c0,0,19.3-71.2-66-71.2C2103.6,752.6,2161.3,782.6,2169.5,823.8z"/>
	</g>
	<g clip-path="url(#SVGID_6_)">
		<path fill="#7058C6" d="M2186.6,154.6c81.8,0,148.1,66.3,148.1,148.1v114.7c0,42.4-13.4,83.8-38.4,118
			c-31.5,43.1-78.5,93.5-125.5,93.5V268.7V154.6H2186.6z"/>
		<path fill="#5140A3" d="M2155.1,154.6c-81.8,0-148.1,66.3-148.1,148.1v114.7c0,42.4,13.4,83.8,38.4,118
			c31.5,43.1,78.5,93.5,125.5,93.5V268.7V154.6H2155.1z"/>
		<path fill="#FFFFFF" d="M2170.8,276.5v218.9l19.4-23.8c-17-20.7,4.5-65.1,12.6-41.4c5.8,16.9,18.6,49,18.6,49
			c10.8-15,51.6-27,38.1,24.9c-13.5,51.9-61.6,119.5-61.6,119.5c84.1-39.7,117.3-101.9,117.3-101.9l-21,4.4
			c36.9-37.8,36.3-120.5,36.3-120.5s-18-7-9.9-59c8.1-51.9-25.2-65.1-25.2-65.1s18.6,27.1-0.6,37c-16.1,8.3-33.6-32.6-33.6-32.6
			l-17.8,29.8c-9.4,15.7-31.2,18.7-44.7,6.2c-6.4-5.9-11.7-12.6-14.4-18.2L2170.8,276.5z M2221.1,445.5l14.1,9.1l-10.4,8.2
			L2221.1,445.5z"/>
		<g>
			<path fill="#E90344" d="M2170.8,301.8c0,0,9.5,31.7,26.6,37s52.2,7.9,63.9-30.8c0,0,29.4,48.7,48.9,2.9c0,0,1.9,8.7-3.6,20.3
				c-4.8,10.2-29.1,17.2-41.7,3.2c0,0-14.2,19.4-39.3,20.8c-55.2,3.2-42-7-43.2,18.2c-1.2,24.6-13.8,56.9-3.9,95.6l-7.7,11.4V301.8z
				"/>
			<path fill="#2C3A49" d="M2189.7,410.7c0,0,0-32.2,49.7-46.4c49.7-14.2,46-2.2,42.7,11.6c-3.3,13.8-17.5,36.1-24.4,49.6
				C2250.8,438.9,2235.3,406.6,2189.7,410.7z"/>
			<path fill="#E90344" d="M2302.6,391.6c9.9,6.2,22.1,24.7,16.6,45.8c-7.6,28.7-21.4,39.6-21.4,39.6c-1.6,46.4-23.4,61.9-23.4,61.9
				l15.9-1.2c-15.8,20.8-61,53.4-61,53.4c49.5-59,54.1-120.2,54.1-120.2s10.2-12.3,13.3-34.3c3.1-22-18.1-25.5-18.1-25.5
				s2.7-4.8,10.3-18.8c2.2-4.1,5-10.2,6-14.7c1.3-6.1,1.9-13.7-0.9-21.3l16.5-5l-6,13.2l6,10.6L2302.6,391.6z"/>
		</g>
		<path fill="#BFBFBF" d="M2047.4,526.2l-21-4.4c0,0,33.2,62.2,117.3,101.9c0,0-48.1-67.6-61.6-119.5
			c-13.5-51.9,27.2-39.9,38.1-24.9c0,0,12.8-32.1,18.6-49c8.1-23.8,29.6,20.7,12.6,41.4l19.4,23.8V276.5l-13.5,27.2
			c-2.8,5.6-8.1,12.3-14.4,18.2c-13.5,12.5-35.3,9.5-44.7-6.2l-17.8-29.8c0,0-17.4,40.8-33.6,32.6c-19.2-9.8-0.6-37-0.6-37
			s-33.3,13.2-25.2,65.1c8.1,51.9-9.9,59-9.9,59S2010.6,488.3,2047.4,526.2z M2106.5,454.6l14.1-9.1l-3.8,17.3L2106.5,454.6z"/>
		<path fill="#BF0443" d="M2170.8,301.8c0,0-9.5,31.7-26.6,37c-17.1,5.3-52.2,7.9-63.9-30.8c0,0-29.4,48.7-48.9,2.9
			c0,0-1.9,8.7,3.6,20.3c4.8,10.2,29.1,17.2,41.7,3.2c0,0,14.2,19.4,39.3,20.8c55.2,3.2,42-7,43.2,18.2c1.2,24.6,13.8,56.9,3.9,95.6
			l7.7,11.4V301.8z"/>
		<path fill="#2C3A49" d="M2152,410.7c0,0,0-32.2-49.7-46.4c-49.7-14.2-46-2.2-42.7,11.6c3.3,13.8,17.5,36.1,24.4,49.6
			C2090.9,438.9,2106.3,406.6,2152,410.7z"/>
		<path fill="#BF0443" d="M2039,391.6c-9.9,6.2-22.1,24.7-16.6,45.8c7.6,28.7,21.4,39.6,21.4,39.6c1.6,46.4,23.4,61.9,23.4,61.9
			l-15.9-1.2c15.8,20.8,61,53.4,61,53.4c-49.5-59-54.1-120.2-54.1-120.2s-10.2-12.3-13.3-34.3s18.1-25.5,18.1-25.5
			s-2.7-4.8-10.3-18.8c-2.2-4.1-5-10.2-6-14.7c-1.3-6.1-1.9-13.7,0.9-21.3l-16.5-5l6,13.2l-6,10.6L2039,391.6z"/>
		<path fill="#FFFFFF" d="M2180.8,483.5c-12.2,15.9,7,37.6,24.5,35.4c32-4,42.3,28.9,11.4,45.3c-33.8,17.9-45.8,26.8-45.8,26.8
			V485.3l13.6-6.7C2184.5,478.6,2180.8,483.5,2180.8,483.5z"/>
		<path fill="#BFBFBF" d="M2160.9,483.5c12.2,15.9-7,37.6-24.5,35.4c-32-4-42.3,28.9-11.4,45.3c33.8,17.9,45.8,26.8,45.8,26.8V485.3
			l-13.6-6.7C2157.2,478.6,2160.9,483.5,2160.9,483.5z"/>
		<path fill="#2C3A49" d="M2120.6,527l13.1,7.8l8.4-7.8l9.9,12.6l9.3-9.4l9.6,17.6l9.6-17.6l9.3,9.4l9.9-12.6l8.4,7.8l13.1-7.8
			c19.6,36.9-50.2,36.8-50.2,36.8S2101,563.9,2120.6,527z"/>
	</g>
</g>
<circle fill="#69CC69" cx="459.2" cy="1316.3" r="388"/>
<g>
	<defs>
		<circle id="SVGID_7_" cx="459.2" cy="1316.3" r="388"/>
	</defs>
	<clipPath id="SVGID_8_">
		<use xlink:href="#SVGID_7_"  overflow="visible"/>
	</clipPath>
	<g clip-path="url(#SVGID_8_)">
		<g>
			<path fill="#B7895C" d="M313.6,1460.4c0,0-90.3,47.7-138.4,113.3c0,0-53,13.9-94.3,24.6v63.5h377v-121.9L313.6,1460.4z"/>
			<path fill="#CA9E67" d="M328.9,1384.1c0,0-21.3,121-44.8,184.8c-4.1,11.2,2.2,23.5,13.7,26.6c33.2,9,98.7,24.3,160.1,24.3v-126
				L328.9,1384.1z"/>
			<path fill="#A07752" d="M442,1619.7c0,0-76.9-21.5-82-92.3c0,0-6.8,44.3,9.6,78.1c2.8,5.8,8.4,9.9,14.8,10.9
				C396.5,1618.2,418.3,1620.8,442,1619.7z"/>
			<path fill="#DBAA79" d="M356.4,1606.9c0,0-22.4,20.6-62.4,12.8s-143-20.4-163,42s326.9,37.8,326.9,37.8s5.2-47.2-5.3-59.4
				S391.9,1643.7,356.4,1606.9z"/>
		</g>
		<g>
			<path fill="#E8B57E" d="M602.2,1460.4c0,0,90.3,47.7,138.4,113.3c0,0,53,13.9,94.3,24.6v63.5h-377v-121.9L602.2,1460.4z"/>
			<path fill="#B7895C" d="M611.9,1501.9c0,0,54.9,21.5,95.4,83c0,0-95.5,35.9-147.9,24.1L611.9,1501.9z"/>
			<path fill="#FAC98E" d="M586.9,1384.1c0,0,21.3,121,44.8,184.8c4.1,11.2-2.2,23.5-13.7,26.6c-33.2,9-98.7,24.3-160.1,24.3v-126
				L586.9,1384.1z"/>
			<path fill="#B7895C" d="M589.9,1401.5c0,0-19.4,102.9-132,133.2v-41L589.9,1401.5z"/>
			<path fill="#B7895C" d="M483,1619.8c0,0,59.8-16.8,63.8-71.9c0,0,5.3,34.5-7.5,60.8c-2.2,4.6-6.6,7.7-11.6,8.5
				C518.5,1618.6,501.5,1620.6,483,1619.8z"/>
			<path fill="#FAC98E" d="M559.4,1606.9c0,0,22.4,20.6,62.4,12.8s143-20.4,163,42s-326.9,37.8-326.9,37.8s-5.2-47.2,5.3-59.4
				S523.9,1643.7,559.4,1606.9z"/>
		</g>
		<path fill="#A07752" d="M282.5,1573.7l43.5-172.2l30.5-17.4l-2.1,37.2l103.6,72.4v41c-38.6-10.4-66.2-29.3-85.9-49.7
			c-12-12.5-32.4-11.2-42.5,3C316.1,1506.7,298.7,1535.1,282.5,1573.7z"/>
		<path fill="#B7895C" d="M457.9,1699.6c0,0-19.3-71.2,66-71.2C523.9,1628.4,466.2,1658.4,457.9,1699.6z"/>
		<path fill="#A07752" d="M457.9,1699.6c0,0,19.3-71.2-66-71.2C391.9,1628.4,449.6,1658.4,457.9,1699.6z"/>
	</g>
	<g clip-path="url(#SVGID_8_)">
		<path fill="#9B4B0A" d="M475,1031c81.8,0,148.1,66.3,148.1,148.1v114.7c0,42.4-13.4,83.8-38.4,118
			c-31.5,43.1-78.5,93.5-125.5,93.5v-360.2V1031H475z"/>
		<path fill="#844303" d="M443.4,1031c-81.8,0-148.1,66.3-148.1,148.1v114.7c0,42.4,13.4,83.8,38.4,118
			c31.5,43.1,78.5,93.5,125.5,93.5v-360.2V1031H443.4z"/>
		<path fill="#303030" d="M459.2,1224.2l35-42H622c0,0,6.8,26.4-13,54.1l0,0c0,0,0,0,0,0c-0.6,0.9-1.3,1.8-2,2.6
			c-4.1,6.1-13,23-13,54.2l-15.6-28.5l0,0l-11.4,63.5l-15.1-40.3l-25.4,53.8l-11.4-34.3l0,0l-19.2,18.1l-14.5-27.2
			c0,0-3.5,29,26.2,56.9c29.7,27.9-8.1,32.4-8.1,32.4s13.5,13.5,37.8-4.5c24.3-18,41.4,0,41.4,0s-21.6,76.5-118.7,105.2
			c0,0,65.3-32.4,74.5-80.9c0,0-46.6,17.1-74.5-12.6v-98.7c-0.3,0-0.6,0-0.8,0V1224.2z"/>
		<path fill="#282828" d="M424,1325.7l-19.2-18.1l-11.4,34.3l-24.2-51.2c-0.5-0.5-1.1-1-1.6-1.4l-14.7,39.2l-11.1-61.9
			c-0.3-0.2-0.5-0.4-0.8-0.7l-15.1,27.5c0-24-5.3-39.6-9.6-48.3c-28.3-30.6-20-62.8-20-62.8h127.8l35,42v58l0.8,0.3v112.4
			c-27.9,29.7-74.5,12.6-74.5,12.6c9.2,48.6,74.5,80.9,74.5,80.9c-97.1-28.8-118.7-105.2-118.7-105.2s17.1-18,41.4,0
			c24.3,18,37.8,4.5,37.8,4.5s-37.8-4.5-8.1-32.4s26.2-56.9,26.2-56.9L424,1325.7z"/>
		<path fill="#CA9E67" d="M460,1289.7c0,0,9.9,53.3,36,73.7c3.6,2.8,3.3,8.5-0.7,10.8c-6.6,3.9-17.8,8.1-35.3,8.1V1289.7z"/>
		<path fill="#C18E56" d="M460,1289.7c0,0-9.9,53.3-36,73.7c-3.6,2.8-3.3,8.5,0.7,10.8c6.6,3.9,17.8,8.1,35.3,8.1V1289.7z"/>
		<path fill="#17252D" d="M460,1382.3v-9l33.4,2C493.4,1375.3,482.6,1382.3,460,1382.3z"/>
		<path fill="#261B1B" d="M460,1382.3v-9l-33.4,2C426.7,1375.3,437.5,1382.3,460,1382.3z"/>
		<path fill="#261B1B" d="M483.5,1272.4c0,0,1.9-62.1,56.8-62.1s59.4,0,59.4,0s-19.8,46.2-45.2,55.9c-25.4,9.7-71,16.8-71,16.8
			V1272.4z"/>
		<path fill="#261B1B" d="M434.9,1272.4c0,0-1.9-62.1-56.8-62.1s-59.4,0-59.4,0s19.8,46.2,45.2,55.9c25.4,9.7,71,16.8,71,16.8
			V1272.4z"/>
		<path fill="#261B1B" d="M419.1,1420.5c15.1,3.5,35.5,2.4,39.4,2.1c0.4,0,0.9,0,1.3,0c3.9,0.3,24.3,1.4,39.4-2.1
			c5.3-1.2,10.6,2.1,11.9,7.4l1.8,7.2l0,0c0,0-26,16.4-53.8,16.4s-53.7-16.4-53.8-16.4l0,0l1.8-7.2
			C408.5,1422.6,413.8,1419.3,419.1,1420.5z"/>
		<polygon fill="#303030" points="578.8,1383.2 590.7,1343.6 537.4,1383.2 545.5,1399.4 		"/>
		<polygon fill="#282828" points="341.3,1383.2 329.3,1343.6 382.7,1383.2 374.6,1399.4 		"/>
	</g>
</g>
<ellipse fill="#E2BF29" cx="1313.2" cy="1316.3" rx="384.1" ry="388"/>
<g>
	<defs>
		<ellipse id="SVGID_9_" cx="1313.2" cy="1316.3" rx="384.1" ry="388"/>
	</defs>
	<clipPath id="SVGID_10_">
		<use xlink:href="#SVGID_9_"  overflow="visible"/>
	</clipPath>
	<g clip-path="url(#SVGID_10_)">
		<g>
			<path fill="#B7895C" d="M1169.1,1460.4c0,0-89.4,47.7-137,113.3c0,0-52.5,13.9-93.3,24.6v63.5h373.2v-121.9L1169.1,1460.4z"/>
			<path fill="#CA9E67" d="M1184.2,1384.1c0,0-21,121-44.3,184.8c-4.1,11.2,2.2,23.5,13.5,26.6c32.9,9,97.7,24.3,158.5,24.3v-126
				L1184.2,1384.1z"/>
			<path fill="#A07752" d="M1296.2,1619.7c0,0-76.1-21.5-81.1-92.3c0,0-6.7,44.3,9.5,78.1c2.8,5.8,8.3,9.9,14.7,10.9
				C1251.1,1618.2,1272.7,1620.8,1296.2,1619.7z"/>
			<path fill="#DBAA79" d="M1211.4,1606.9c0,0-22.1,20.6-61.8,12.8c-39.7-7.8-141.6-20.4-161.4,42s323.6,37.8,323.6,37.8
				s5.2-47.2-5.3-59.4C1296.2,1627.9,1246.6,1643.7,1211.4,1606.9z"/>
		</g>
		<g>
			<path fill="#E8B57E" d="M1454.7,1460.4c0,0,89.4,47.7,137,113.3c0,0,52.5,13.9,93.3,24.6v63.5h-373.2v-121.9L1454.7,1460.4z"/>
			<path fill="#B7895C" d="M1464.4,1501.9c0,0,54.4,21.5,94.4,83c0,0-94.6,35.9-146.4,24.1L1464.4,1501.9z"/>
			<path fill="#FAC98E" d="M1439.6,1384.1c0,0,21,121,44.3,184.8c4.1,11.2-2.2,23.5-13.5,26.6c-32.9,9-97.7,24.3-158.5,24.3v-126
				L1439.6,1384.1z"/>
			<path fill="#B7895C" d="M1442.6,1401.5c0,0-19.2,102.9-130.7,133.2v-41L1442.6,1401.5z"/>
			<path fill="#B7895C" d="M1336.8,1619.8c0,0,59.2-16.8,63.2-71.9c0,0,5.2,34.5-7.4,60.8c-2.2,4.6-6.5,7.7-11.4,8.5
				C1371.9,1618.6,1355.1,1620.6,1336.8,1619.8z"/>
			<path fill="#FAC98E" d="M1412.4,1606.9c0,0,22.1,20.6,61.8,12.8c39.7-7.8,141.6-20.4,161.4,42c19.8,62.4-323.6,37.8-323.6,37.8
				s-5.2-47.2,5.3-59.4C1327.6,1627.9,1377.2,1643.7,1412.4,1606.9z"/>
		</g>
		<path fill="#A07752" d="M1138.2,1573.7l43-172.2l30.2-17.4l-2.1,37.2l102.6,72.4v41c-38.2-10.4-65.5-29.3-85-49.7
			c-11.9-12.5-32.1-11.2-42.1,3C1171.6,1506.7,1154.3,1535.1,1138.2,1573.7z"/>
		<path fill="#B7895C" d="M1311.9,1699.6c0,0-19.1-71.2,65.3-71.2C1377.2,1628.4,1320.1,1658.4,1311.9,1699.6z"/>
		<path fill="#A07752" d="M1311.9,1699.6c0,0,19.1-71.2-65.3-71.2C1246.6,1628.4,1303.7,1658.4,1311.9,1699.6z"/>
	</g>
	<g clip-path="url(#SVGID_10_)">
		<path fill="#C62828" d="M1328.8,1030.3c81,0,146.6,66.3,146.6,148.1v114.7c0,42.4-13.2,83.8-38,118
			c-31.2,43.1-77.7,93.5-124.2,93.5v-360.2v-114.1H1328.8z"/>
		<path fill="#AD1E1E" d="M1297.6,1030.3c-81,0-146.6,66.3-146.6,148.1v114.7c0,42.4,13.2,83.8,38,118
			c31.2,43.1,77.7,93.5,124.2,93.5v-360.2v-114.1H1297.6z"/>
		<path fill="#FF9700" d="M1313.2,1193v45v64.2v21.6v141.5c32.4-8.4,69.2-40.8,74.1-52.2s2.2-31.2-34.9-12.6
			c-23.9,12-32.9-2.2-33.4-10.1c-0.3-4.4,1.5-8.7,4.8-11.7l17.6-16.5c0,0-14.1,43.2,24.5,24c38.6-19.2,46.5,28.8,11,54
			c-35.5,25.2-36.7,49.8-36.7,49.8s9.2-15,36.1-30c26.9-15,63.3-57.5,67-76.3c3.7-18.9,8.3-31.5,8.3-31.5
			c-23.9,14.3-31.2,42.3-31.2,42.3s-8.3-33.3,26.6-56.7c34.9-23.4,20.2-44.1,20.2-44.1c-21.1,19.8-44.1,0-12.9-26.1
			c31.2-26.1,11-52.2,11-52.2c-4.6,25.2-46.8,21.6-12.9-16.2c34-37.8-10.1-75.6-10.1-75.6c22,45-31.2,80.9-32.1,43.2
			c-0.9-37.8,10.1-74.7,10.1-74.7s-38.6,49.5-57.8,87.2C1343.2,1217.1,1313.2,1193,1313.2,1193z"/>
		<path fill="#2C3A49" d="M1354.2,1304.5l-20.8-48.6c0,0,65.3,1.2,76.4-42c0,0,17.4,51.6-8.1,81
			C1386,1313,1354.2,1304.5,1354.2,1304.5z"/>
		<path fill="#C62828" d="M1313.2,1295.5c0,0,12.7,23.3,40.2,32.6c27.5,9.3-40.2,40.6-40.2,40.6V1295.5z"/>
		<path fill="#2C3A49" d="M1313.2,1452c0-0.6,17.2-6.7,18.6-7.3c9.4-4.2,18.7-8.8,27.5-14.2c6.7-4.2,15.5-9.4,19.3-16.8
			c3.7-7.3-2.1-17.5-11.2-11c-11.4,8.2-30.5,15.1-54.2,16.9C1313.2,1419.6,1313.2,1452,1313.2,1452z"/>
		<path fill="#D37800" d="M1263.9,1179.3c-19.3-37.8-57.8-87.2-57.8-87.2s11,36.9,10.1,74.7c-0.9,37.8-54.2,1.8-32.1-43.2
			c0,0-44.1,37.8-10.1,75.6c34,37.8-8.3,41.4-12.9,16.2c0,0-20.2,26.1,11,52.2c31.2,26.1,8.3,45.9-12.9,26.1
			c0,0-14.7,20.7,20.2,44.1c34.9,23.4,26.6,56.7,26.6,56.7s-7.3-27.9-31.2-42.3c0,0,4.6,12.6,8.3,31.5c3.7,18.9,40.1,61.4,67,76.3
			c26.9,15,36.1,30,36.1,30s-1.2-24.6-36.7-49.8c-35.5-25.2-27.5-73.2,11-54c38.6,19.2,24.5-24,24.5-24l17.6,16.5
			c3.3,3,5.1,7.3,4.8,11.7c-0.5,8-9.6,22.1-33.4,10.1c-37-18.6-39.8,1.2-34.9,12.6c4.9,11.4,41.6,43.8,74.1,52.2v-141.5v-21.6v-64.2
			v-45C1313.2,1193,1283.2,1217.1,1263.9,1179.3z"/>
		<path fill="#2C3A49" d="M1272.2,1304.5l20.8-48.6c0,0-65.3,1.2-76.4-42c0,0-17.4,51.6,8.1,81
			C1240.4,1313,1272.2,1304.5,1272.2,1304.5z"/>
		<path fill="#AD1E1E" d="M1313.2,1295.5c0,0-12.7,23.3-40.2,32.6c-27.5,9.3,40.2,40.6,40.2,40.6V1295.5z"/>
		<path fill="#2C3A49" d="M1313.2,1452c0-0.6-17.2-6.7-18.6-7.3c-9.4-4.2-18.7-8.8-27.5-14.2c-6.7-4.2-15.5-9.4-19.3-16.8
			c-3.7-7.3,2.1-17.5,11.2-11c11.4,8.2,30.5,15.1,54.2,16.9C1313.2,1419.6,1313.2,1452,1313.2,1452z"/>
		<path fill="#2C3A49" d="M1334.3,1351.1l19-6.6c0,0-16.7,14-40.1,24.2c-23.4-10.2-40.1-24.2-40.1-24.2l19,6.6
			C1305.8,1355.9,1320.6,1355.9,1334.3,1351.1z"/>
	</g>
</g>
<circle fill="#5C616D" cx="2170.8" cy="1316.3" r="388"/>
<g>
	<defs>
		<circle id="SVGID_11_" cx="2170.8" cy="1316.3" r="388"/>
	</defs>
	<clipPath id="SVGID_12_">
		<use xlink:href="#SVGID_11_"  overflow="visible"/>
	</clipPath>
	<g clip-path="url(#SVGID_12_)">
		<g>
			<path fill="#B7895C" d="M2025.3,1460.4c0,0-90.3,47.7-138.4,113.3c0,0-53,13.9-94.3,24.6v63.5h377v-121.9L2025.3,1460.4z"/>
			<path fill="#CA9E67" d="M2040.5,1384.1c0,0-21.3,121-44.8,184.8c-4.1,11.2,2.2,23.5,13.7,26.6c33.2,9,98.7,24.3,160.1,24.3v-126
				L2040.5,1384.1z"/>
			<path fill="#A07752" d="M2153.7,1619.7c0,0-76.9-21.5-82-92.3c0,0-6.8,44.3,9.6,78.1c2.8,5.8,8.4,9.9,14.8,10.9
				C2108.1,1618.2,2129.9,1620.8,2153.7,1619.7z"/>
			<path fill="#DBAA79" d="M2068.1,1606.9c0,0-22.4,20.6-62.4,12.8c-40.1-7.8-143-20.4-163,42c-20,62.4,326.9,37.8,326.9,37.8
				s5.2-47.2-5.3-59.4C2153.7,1627.9,2103.6,1643.7,2068.1,1606.9z"/>
		</g>
		<g>
			<path fill="#E8B57E" d="M2313.8,1460.4c0,0,90.3,47.7,138.4,113.3c0,0,53,13.9,94.3,24.6v63.5h-377v-121.9L2313.8,1460.4z"/>
			<path fill="#B7895C" d="M2323.6,1501.9c0,0,54.9,21.5,95.4,83c0,0-95.5,35.9-147.9,24.1L2323.6,1501.9z"/>
			<path fill="#FAC98E" d="M2298.6,1384.1c0,0,21.3,121,44.8,184.8c4.1,11.2-2.2,23.5-13.7,26.6c-33.2,9-98.7,24.3-160.1,24.3v-126
				L2298.6,1384.1z"/>
			<path fill="#B7895C" d="M2301.5,1401.5c0,0-19.4,102.9-132,133.2v-41L2301.5,1401.5z"/>
			<path fill="#B7895C" d="M2194.6,1619.8c0,0,59.8-16.8,63.8-71.9c0,0,5.3,34.5-7.5,60.8c-2.2,4.6-6.6,7.7-11.6,8.5
				C2230.1,1618.6,2213.2,1620.6,2194.6,1619.8z"/>
			<path fill="#FAC98E" d="M2271,1606.9c0,0,22.4,20.6,62.4,12.8c40.1-7.8,143-20.4,163,42c20,62.4-326.9,37.8-326.9,37.8
				s-5.2-47.2,5.3-59.4C2185.4,1627.9,2235.5,1643.7,2271,1606.9z"/>
		</g>
		<path fill="#A07752" d="M1994.1,1573.7l43.5-172.2l30.5-17.4l-2.1,37.2l103.6,72.4v41c-38.6-10.4-66.2-29.3-85.9-49.7
			c-12-12.5-32.4-11.2-42.5,3C2027.8,1506.7,2010.4,1535.1,1994.1,1573.7z"/>
		<path fill="#B7895C" d="M2169.5,1699.6c0,0-19.3-71.2,66-71.2C2235.5,1628.4,2177.8,1658.4,2169.5,1699.6z"/>
		<path fill="#A07752" d="M2169.5,1699.6c0,0,19.3-71.2-66-71.2C2103.6,1628.4,2161.3,1658.4,2169.5,1699.6z"/>
	</g>
	<g clip-path="url(#SVGID_12_)">
		<path fill="#C9CFCD" d="M2186.6,1030.6c81.8,0,148.1,66.3,148.1,148.1v114.7c0,42.4-13.4,83.8-38.4,118
			c-31.5,43.1-78.5,93.5-125.5,93.5v-360.2v-114.1H2186.6z"/>
		<path fill="#A5AAA9" d="M2155.1,1030.6c-81.8,0-148.1,66.3-148.1,148.1v114.7c0,42.4,13.4,83.8,38.4,118
			c31.5,43.1,78.5,93.5,125.5,93.5v-360.2v-114.1H2155.1z"/>
		<path fill="#FFFFFF" d="M2232.5,1341.9c0.4,0,0.9-0.1,1.3-0.1C2233.4,1341.8,2233,1341.9,2232.5,1341.9z"/>
		<path fill="#FFFFFF" d="M2214.3,1339.4c0.2,0.1,0.5,0.2,0.7,0.2C2214.8,1339.6,2214.5,1339.5,2214.3,1339.4z"/>
		<path fill="#FFFFFF" d="M2237.4,1341.4c0.4-0.1,0.9-0.1,1.3-0.2C2238.3,1341.3,2237.9,1341.3,2237.4,1341.4z"/>
		<path fill="#FFFFFF" d="M2216.5,1340.1c0.3,0.1,0.6,0.2,0.9,0.2C2217.1,1340.3,2216.8,1340.2,2216.5,1340.1z"/>
		<path fill="#FFFFFF" d="M2235,1341.7c0.4,0,0.9-0.1,1.3-0.2C2235.9,1341.6,2235.4,1341.7,2235,1341.7z"/>
		<path fill="#FFFFFF" d="M2244.6,1340c0.5-0.1,1-0.3,1.6-0.4C2245.6,1339.7,2245.1,1339.8,2244.6,1340z"/>
		<path fill="#FFFFFF" d="M2227.8,1341.9c0.4,0,0.7,0,1.1,0C2228.5,1341.9,2228.2,1341.9,2227.8,1341.9z"/>
		<path fill="#FFFFFF" d="M2230.1,1342c0.4,0,0.9,0,1.3,0C2231,1341.9,2230.6,1342,2230.1,1342z"/>
		<path fill="#FFFFFF" d="M2223.2,1341.5c0.3,0,0.7,0.1,1,0.1C2223.9,1341.6,2223.6,1341.6,2223.2,1341.5z"/>
		<path fill="#FFFFFF" d="M2225.5,1341.8c0.4,0,0.7,0,1.1,0.1C2226.2,1341.8,2225.9,1341.8,2225.5,1341.8z"/>
		<path fill="#FFFFFF" d="M2239.8,1341c0.5-0.1,0.9-0.2,1.4-0.3C2240.7,1340.8,2240.3,1340.9,2239.8,1341z"/>
		<path fill="#FFFFFF" d="M2218.7,1340.7c0.3,0.1,0.6,0.1,1,0.2C2219.4,1340.9,2219,1340.8,2218.7,1340.7z"/>
		<path fill="#FFFFFF" d="M2221,1341.2c0.3,0.1,0.7,0.1,1,0.2C2221.6,1341.3,2221.3,1341.3,2221,1341.2z"/>
		<path fill="#2C3A49" d="M2255.3,1254.6c16.4-8.2,28.8-15.8,38-22.7c0.1,7.2-0.2,14.2-0.6,20.9c-1.2,17.1-6,32.5-13.8,44.6
			c-8.3,12.8-19.9,21.9-34.6,27c-4.9,1.7-9.9,2.6-14.6,2.6c-4.3,0-8.2-0.7-11.7-2.2c-6.6-2.8-9.6-7.6-10.9-11.2
			c-2.3-6-1.8-13,1.2-19.4C2217.2,1275.3,2239.4,1262.6,2255.3,1254.6z"/>
		<path fill="#FFFFFF" d="M2306.4,1200.1c-0.1-0.9-0.1-1.8-0.2-2.9C2306.3,1198.3,2306.4,1199.3,2306.4,1200.1z"/>
		<path fill="#FFFFFF" d="M2205.2,1334.7c-2.6-1.9-4.9-4-6.8-6.4C2200.3,1330.6,2202.5,1332.8,2205.2,1334.7z"/>
		<path fill="#FFFFFF" d="M2193.7,1320.4c1.2,2.8,2.8,5.4,4.7,7.8C2196.4,1325.8,2194.9,1323.2,2193.7,1320.4z"/>
		<path fill="#FFFFFF" d="M2212.1,1338.6C2212.1,1338.6,2212.1,1338.6,2212.1,1338.6c-1.3-0.5-2.5-1.1-3.7-1.8
			C2209.6,1337.4,2210.9,1338,2212.1,1338.6C2212.1,1338.6,2212.1,1338.6,2212.1,1338.6z"/>
		<path fill="#FFFFFF" d="M2307,1205.8c-0.2-1.6-0.4-3.4-0.5-5.6C2306.6,1202.4,2306.8,1204.1,2307,1205.8z"/>
		<path fill="#FFFFFF" d="M2190.6,1306.2c0,1.9,0.2,3.7,0.5,5.5C2190.8,1309.9,2190.7,1308.1,2190.6,1306.2z"/>
		<path fill="#FFFFFF" d="M2246.9,1339.3c0.8-0.2,1.5-0.5,2.3-0.7C2248.4,1338.8,2247.7,1339,2246.9,1339.3z"/>
		<path fill="#FFFFFF" d="M2307.1,1206.8c0-0.3-0.1-0.7-0.1-1.1C2307,1206.1,2307,1206.5,2307.1,1206.8z"/>
		<path fill="#FFFFFF" d="M2192.4,1317c0.4,1.2,0.8,2.3,1.3,3.4C2193.2,1319.3,2192.8,1318.2,2192.4,1317z"/>
		<path fill="#FFFFFF" d="M2205.2,1334.7c1.1,0.7,2.2,1.5,3.3,2.1C2207.3,1336.1,2206.2,1335.4,2205.2,1334.7z"/>
		<path fill="#FFFFFF" d="M2242.2,1340.5c0.5-0.1,0.9-0.2,1.4-0.3C2243.2,1340.3,2242.7,1340.4,2242.2,1340.5z"/>
		<path fill="#FFFFFF" d="M2092.5,1338.5c0.8,0.3,1.5,0.5,2.3,0.7C2094,1339,2093.2,1338.8,2092.5,1338.5z"/>
		<path fill="#FFFFFF" d="M2112.8,1342c0.4,0,0.7,0,1.1,0C2113.5,1341.9,2113.1,1341.9,2112.8,1342z"/>
		<path fill="#FFFFFF" d="M2042.1,1289.9c1,2.4,2,4.7,3.1,7C2044.1,1294.6,2043.1,1292.3,2042.1,1289.9z"/>
		<path fill="#FFFFFF" d="M2115.1,1341.9c0.4,0,0.7,0,1.1-0.1C2115.8,1341.8,2115.5,1341.8,2115.1,1341.9z"/>
		<path fill="#FFFFFF" d="M2051.3,1307.2c0.5,0.8,1,1.5,1.6,2.2C2052.3,1308.7,2051.8,1307.9,2051.3,1307.2z"/>
		<path fill="#FFFFFF" d="M2102.9,1341.2c0.4,0.1,0.9,0.1,1.3,0.2C2103.8,1341.3,2103.4,1341.3,2102.9,1341.2z"/>
		<path fill="#FFFFFF" d="M2117.4,1341.7c0.3,0,0.7-0.1,1-0.1C2118.1,1341.6,2117.8,1341.6,2117.4,1341.7z"/>
		<path fill="#FFFFFF" d="M2107.8,1341.8c0.4,0,0.9,0.1,1.3,0.1C2108.7,1341.9,2108.3,1341.8,2107.8,1341.8z"/>
		<path fill="#FFFFFF" d="M2110.3,1341.9c0.4,0,0.9,0,1.3,0C2111.1,1342,2110.7,1341.9,2110.3,1341.9z"/>
		<path fill="#FFFFFF" d="M2105.4,1341.5c0.4,0.1,0.9,0.1,1.3,0.2C2106.3,1341.7,2105.8,1341.6,2105.4,1341.5z"/>
		<path fill="#FFFFFF" d="M2100.5,1340.7c0.5,0.1,0.9,0.2,1.4,0.3C2101.4,1340.9,2101,1340.8,2100.5,1340.7z"/>
		<path fill="#FFFFFF" d="M2095.5,1339.5c0.5,0.2,1,0.3,1.5,0.4C2096.6,1339.8,2096.1,1339.7,2095.5,1339.5z"/>
		<path fill="#FFFFFF" d="M2119.7,1341.4c0.3-0.1,0.7-0.1,1-0.2C2120.4,1341.3,2120,1341.3,2119.7,1341.4z"/>
		<path fill="#FFFFFF" d="M2098.1,1340.2c0.5,0.1,0.9,0.2,1.4,0.3C2099,1340.4,2098.5,1340.3,2098.1,1340.2z"/>
		<path fill="#FFFFFF" d="M2072.8,1230.1c-3.9-2.3-7.3-4.5-10.5-6.7C2065.5,1225.6,2068.9,1227.8,2072.8,1230.1z"/>
		<path fill="#FFFFFF" d="M2045.1,1209.6c-0.8-0.8-1.5-1.5-2.2-2.3C2043.6,1208.1,2044.3,1208.8,2045.1,1209.6z"/>
		<path fill="#FFFFFF" d="M2042.3,1206.6c-0.4-0.5-0.8-0.9-1.2-1.4C2041.5,1205.7,2041.9,1206.2,2042.3,1206.6z"/>
		<path fill="#FFFFFF" d="M2041.1,1205.3c-0.9-1.1-1.7-2.1-2.3-3C2039.4,1203.1,2040.2,1204.2,2041.1,1205.3z"/>
		<path fill="#FFFFFF" d="M2035.5,1195.7c0,0,0.1,0.9,0.9,2.5C2035.6,1196.5,2035.5,1195.7,2035.5,1195.7L2035.5,1195.7z"/>
		<path fill="#FFFFFF" d="M2059.3,1221.4c-1.4-1-2.8-2-4.1-3C2056.6,1219.4,2057.9,1220.4,2059.3,1221.4z"/>
		<path fill="#FFFFFF" d="M2062.3,1223.5c-1-0.7-2-1.4-3-2.1C2060.3,1222.1,2061.3,1222.8,2062.3,1223.5z"/>
		<path fill="#FFFFFF" d="M2049.6,1213.7c-1.7-1.5-3.2-2.9-4.5-4.2C2046.4,1210.9,2047.9,1212.3,2049.6,1213.7z"/>
		<path fill="#FFFFFF" d="M2055.3,1218.4c-1.7-1.3-3.2-2.5-4.7-3.7C2052,1215.8,2053.6,1217.1,2055.3,1218.4z"/>
		<path fill="#FFFFFF" d="M2147,1287.8c-0.5-1-1-2-1.5-2.9C2146,1285.8,2146.5,1286.8,2147,1287.8c9,19,3,42.1-17.4,50.8
			c0,0,0,0,0,0c0,0,0,0,0,0C2149.9,1329.9,2156,1306.7,2147,1287.8z"/>
		<path fill="#2C3A49" d="M2133.4,1294.2c3,6.3,3.5,13.4,1.2,19.4c-1.3,3.6-4.3,8.4-10.9,11.2c-3.5,1.5-7.4,2.2-11.7,2.2
			c-4.7,0-9.7-0.9-14.6-2.6c-14.7-5.1-26.3-14.2-34.6-27c-7.8-12-12.6-27.5-13.8-44.6c-0.5-6.7-0.7-13.7-0.6-20.9
			c9.3,6.9,21.6,14.5,38,22.7C2102.3,1262.6,2124.5,1275.3,2133.4,1294.2z"/>
		<path fill="#FFFFFF" d="M2081.1,1234.9c3.7,2,7.7,4.1,12,6.3c1.9,1,3.9,2,5.9,3c-2-1-3.9-2.1-5.9-3
			C2088.8,1239,2084.8,1236.9,2081.1,1234.9z"/>
		<path fill="#FFFFFF" d="M2034.7,1205.8c-0.1,1-0.2,1.9-0.3,2.8C2034.5,1207.6,2034.6,1206.7,2034.7,1205.8z"/>
		<path fill="#FFFFFF" d="M2035.1,1202.5c-0.1,1.2-0.2,2.3-0.3,3.3C2034.8,1204.8,2034.9,1203.7,2035.1,1202.5z"/>
		<path fill="#FFFFFF" d="M2034.2,1210.2c0,0.1,0,0.1,0,0.2C2034.2,1210.3,2034.2,1210.3,2034.2,1210.2z"/>
		<path fill="#FFFFFF" d="M2035.4,1198.7c0,0.1,0,0.1,0,0.2C2035.3,1198.8,2035.3,1198.7,2035.4,1198.7z"/>
		<path fill="#FFFFFF" d="M2038.8,1202.2c-1.2-1.7-1.9-3-2.4-4.1C2036.9,1199.2,2037.6,1200.6,2038.8,1202.2z"/>
		<path fill="#FFFFFF" d="M2124.3,1340.4c0.3-0.1,0.6-0.2,0.9-0.2C2124.9,1340.2,2124.6,1340.3,2124.3,1340.4z"/>
		<path fill="#FFFFFF" d="M2122,1340.9c0.3-0.1,0.6-0.1,1-0.2C2122.7,1340.8,2122.3,1340.9,2122,1340.9z"/>
		<path fill="#FFFFFF" d="M2104.9,1247.5c-1.3-0.8-2.6-1.5-3.9-2.2C2102.2,1246,2103.6,1246.7,2104.9,1247.5z"/>
		<path fill="#FFFFFF" d="M2126.7,1339.7c0.2-0.1,0.5-0.2,0.7-0.2C2127.1,1339.5,2126.9,1339.6,2126.7,1339.7z"/>
		<path fill="#FFFFFF" d="M2076.8,1232.5c-1.4-0.8-2.7-1.6-4-2.4C2074.1,1230.9,2075.4,1231.7,2076.8,1232.5z"/>
		<path fill="#FFFFFF" d="M2081.1,1234.9c-1.5-0.8-2.9-1.6-4.3-2.4C2078.2,1233.3,2079.6,1234.1,2081.1,1234.9z"/>
		<path fill="#FFFFFF" d="M2283.7,1220.4c-0.9,0.7-1.9,1.4-2.9,2.1C2281.9,1221.7,2282.8,1221,2283.7,1220.4z"/>
		<path fill="#FFFFFF" d="M2287.6,1217.4c-0.8,0.6-1.7,1.3-2.5,1.9C2286,1218.7,2286.8,1218.1,2287.6,1217.4z"/>
		<path fill="#FFFFFF" d="M2244.7,1243.2c-2,1-3.9,2.1-5.9,3.2C2240.8,1245.3,2242.7,1244.2,2244.7,1243.2z"/>
		<path fill="#FFFFFF" d="M2293.1,1212.9c-1,0.9-2,1.8-3.1,2.7C2291.1,1214.6,2292.1,1213.7,2293.1,1212.9z"/>
		<path fill="#FFFFFF" d="M2270.8,1229c-1.2,0.8-2.5,1.5-3.9,2.3C2268.2,1230.5,2269.5,1229.7,2270.8,1229z"/>
		<path fill="#FFFFFF" d="M2266.9,1231.3c-1.3,0.8-2.7,1.6-4.1,2.4C2264.2,1232.9,2265.6,1232.1,2266.9,1231.3z"/>
		<path fill="#FFFFFF" d="M2280.9,1222.4c-1,0.7-2,1.4-3.1,2.1C2278.8,1223.8,2279.9,1223.1,2280.9,1222.4z"/>
		<path fill="#FFFFFF" d="M2300,1205.9c-0.6,0.7-1.2,1.4-1.9,2.1C2298.8,1207.3,2299.4,1206.6,2300,1205.9z"/>
		<path fill="#FFFFFF" d="M2262.8,1233.7c-1.4,0.8-2.9,1.6-4.4,2.4C2259.9,1235.3,2261.3,1234.5,2262.8,1233.7z"/>
		<path fill="#FFFFFF" d="M2281.2,1318.4c4.6-4.7,8.6-10,12-15.7C2289.8,1308.4,2285.8,1313.7,2281.2,1318.4z"/>
		<path fill="#FFFFFF" d="M2246.1,1339.5c0.3-0.1,0.5-0.1,0.8-0.2C2246.7,1339.4,2246.4,1339.4,2246.1,1339.5z"/>
		<path fill="#FFFFFF" d="M2226.6,1341.9c0.4,0,0.8,0.1,1.3,0.1C2227.4,1341.9,2227,1341.9,2226.6,1341.9z"/>
		<path fill="#FFFFFF" d="M2268.3,1329.1c3.8-2.5,7.3-5.3,10.5-8.4C2275.6,1323.8,2272.1,1326.6,2268.3,1329.1z"/>
		<path fill="#FFFFFF" d="M2305.4,1197.8c-0.1,0.2-0.2,0.4-0.3,0.7C2305.2,1198.3,2305.3,1198,2305.4,1197.8z"/>
		<path fill="#FFFFFF" d="M2222,1341.4c0.4,0.1,0.8,0.1,1.3,0.2C2222.8,1341.5,2222.4,1341.4,2222,1341.4z"/>
		<path fill="#FFFFFF" d="M2303.3,1201.7c-0.2,0.4-0.5,0.7-0.8,1.1C2302.8,1202.4,2303,1202,2303.3,1201.7z"/>
		<path fill="#FFFFFF" d="M2301.1,1204.6c-0.3,0.4-0.7,0.9-1.1,1.3C2300.4,1205.5,2300.8,1205,2301.1,1204.6z"/>
		<path fill="#FFFFFF" d="M2219.7,1340.9c0.4,0.1,0.9,0.2,1.3,0.3C2220.5,1341.1,2220.1,1341,2219.7,1340.9z"/>
		<path fill="#FFFFFF" d="M2224.3,1341.7c0.4,0,0.8,0.1,1.3,0.1C2225.1,1341.8,2224.7,1341.7,2224.3,1341.7z"/>
		<path fill="#FFFFFF" d="M2241.2,1340.7c0.3-0.1,0.7-0.1,1-0.2C2241.9,1340.6,2241.5,1340.7,2241.2,1340.7z"/>
		<path fill="#FFFFFF" d="M2217.4,1340.4c0.4,0.1,0.9,0.2,1.3,0.4C2218.3,1340.6,2217.8,1340.5,2217.4,1340.4z"/>
		<path fill="#FFFFFF" d="M2212.1,1338.6c0.7,0.3,1.4,0.6,2.1,0.8C2213.6,1339.1,2212.9,1338.9,2212.1,1338.6z"/>
		<path fill="#FFFFFF" d="M2191.6,1296.9c-0.3,1.2-0.5,2.5-0.6,3.7C2191.1,1299.4,2191.3,1298.1,2191.6,1296.9z"/>
		<path fill="#FFFFFF" d="M2231.4,1341.9c0.4,0,0.7,0,1.1,0C2232.2,1341.9,2231.8,1341.9,2231.4,1341.9z"/>
		<path fill="#FFFFFF" d="M2236.3,1341.5c0.4,0,0.7-0.1,1.1-0.1C2237,1341.5,2236.7,1341.5,2236.3,1341.5z"/>
		<path fill="#FFFFFF" d="M2215,1339.6c0.5,0.2,1,0.3,1.5,0.5C2216,1340,2215.5,1339.8,2215,1339.6z"/>
		<path fill="#FFFFFF" d="M2243.6,1340.2c0.3-0.1,0.6-0.2,1-0.2C2244.3,1340,2243.9,1340.1,2243.6,1340.2z"/>
		<path fill="#FFFFFF" d="M2238.7,1341.2c0.4-0.1,0.7-0.1,1.1-0.2C2239.5,1341.1,2239.1,1341.1,2238.7,1341.2z"/>
		<path fill="#FFFFFF" d="M2307.1,1206.8c0.2,2.1,0.5,4,0.6,6.3c0.2,3.4,0.4,6.8,0.5,10.2c-0.1-3.4-0.3-6.8-0.5-10.2
			C2307.6,1210.8,2307.3,1208.9,2307.1,1206.8z"/>
		<path fill="#FFFFFF" d="M2190.9,1300.6c-0.2,1.9-0.3,3.7-0.3,5.6C2190.6,1304.4,2190.7,1302.5,2190.9,1300.6z"/>
		<path fill="#FFFFFF" d="M2295.8,1210.4c0.6-0.5,1.1-1.1,1.6-1.6C2296.8,1209.3,2296.3,1209.8,2295.8,1210.4z"/>
		<path fill="#FFFFFF" d="M2194.7,1287.8c-1.4,3-2.5,6-3.1,9.1C2192.3,1293.8,2193.3,1290.7,2194.7,1287.8
			c8.7-18.3,26.3-31.5,44.1-41.4C2221,1256.3,2203.4,1269.5,2194.7,1287.8z"/>
		<path fill="#FFFFFF" d="M2308.3,1233.5c0,6.8-0.2,13.6-0.7,20.4c-1.3,17.8-6,34.7-14.4,48.9c8.5-14.2,13.2-31,14.4-48.9
			C2308.1,1247.1,2308.4,1240.3,2308.3,1233.5z"/>
		<path fill="#FFFFFF" d="M2233.9,1341.8c0.4,0,0.7-0.1,1.1-0.1C2234.6,1341.7,2234.2,1341.8,2233.9,1341.8z"/>
		<path fill="#FFFFFF" d="M2265.4,1330.9c-4.9,3-10.3,5.5-16.2,7.6c0,0,0,0,0,0c0,0,0,0,0,0
			C2255.1,1336.5,2260.5,1333.9,2265.4,1330.9z"/>
		<path fill="#FFFFFF" d="M2229.7,1342c-0.3,0-0.5,0-0.8,0c0.4,0,0.8,0,1.2,0C2230,1342,2229.8,1342,2229.7,1342z"/>
		<path fill="#FFFFFF" d="M2190.9,1300.6c-0.2,1.9-0.3,3.7-0.3,5.6c0,1.9,0.2,3.7,0.5,5.5c0.3,1.8,0.7,3.6,1.3,5.3
			c0.4,1.2,0.8,2.3,1.3,3.4c1.2,2.8,2.8,5.4,4.7,7.8c1.9,2.4,4.2,4.6,6.8,6.4c1.1,0.7,2.2,1.5,3.3,2.1c1.2,0.6,2.4,1.2,3.7,1.8
			c0,0,0,0,0,0c0.7,0.3,1.4,0.6,2.1,0.8c0.2,0.1,0.5,0.2,0.7,0.2c0.5,0.2,1,0.3,1.5,0.5c0.3,0.1,0.6,0.2,0.9,0.2
			c0.4,0.1,0.9,0.2,1.3,0.4c0.3,0.1,0.6,0.1,1,0.2c0.4,0.1,0.9,0.2,1.3,0.3c0.3,0.1,0.7,0.1,1,0.2c0.4,0.1,0.8,0.1,1.3,0.2
			c0.3,0,0.7,0.1,1,0.1c0.4,0,0.8,0.1,1.3,0.1c0.4,0,0.7,0,1.1,0.1c0.4,0,0.8,0.1,1.3,0.1c0.4,0,0.7,0,1.1,0c0.4,0,0.8,0,1.2,0
			c0.4,0,0.9,0,1.3,0c0.4,0,0.7,0,1.1,0c0.4,0,0.9-0.1,1.3-0.1c0.4,0,0.7-0.1,1.1-0.1c0.4,0,0.9-0.1,1.3-0.2c0.4,0,0.7-0.1,1.1-0.1
			c0.4-0.1,0.9-0.1,1.3-0.2c0.4-0.1,0.7-0.1,1.1-0.2c0.5-0.1,0.9-0.2,1.4-0.3c0.3-0.1,0.7-0.1,1-0.2c0.5-0.1,0.9-0.2,1.4-0.3
			c0.3-0.1,0.6-0.2,1-0.2c0.5-0.1,1-0.3,1.6-0.4c0.3-0.1,0.5-0.1,0.8-0.2c0.8-0.2,1.5-0.5,2.3-0.7c0,0,0,0,0,0
			c5.9-2,11.2-4.6,16.2-7.6c1-0.6,2-1.2,2.9-1.8c3.8-2.5,7.3-5.3,10.5-8.4c0.8-0.8,1.6-1.5,2.4-2.3c4.6-4.7,8.6-10,12-15.7
			c8.5-14.2,13.2-31,14.4-48.9c0.5-6.8,0.7-13.6,0.7-20.4c0-3.4-0.1-6.8-0.2-10.2c-0.1-3.4-0.3-6.8-0.5-10.2
			c-0.1-2.3-0.4-4.2-0.6-6.3c0-0.3-0.1-0.7-0.1-1.1c-0.2-1.6-0.4-3.4-0.5-5.6c-0.1-0.9-0.1-1.8-0.2-2.9c0-0.5-0.1-1.1-0.1-1.6
			c0,0-0.1,0.7-0.7,2.1c-0.1,0.2-0.2,0.4-0.3,0.7c-0.4,0.9-1,1.9-1.9,3.2c-0.2,0.4-0.5,0.7-0.8,1.1c-0.4,0.6-0.9,1.2-1.4,1.8
			c-0.3,0.4-0.7,0.9-1.1,1.3c-0.6,0.7-1.2,1.4-1.9,2.1c-0.2,0.2-0.5,0.5-0.7,0.8c-0.5,0.5-1,1-1.6,1.6c-0.8,0.8-1.7,1.6-2.7,2.5
			c-1,0.9-2,1.8-3.1,2.7c-0.7,0.6-1.5,1.2-2.3,1.9c-0.8,0.6-1.7,1.3-2.5,1.9c-0.4,0.3-0.9,0.7-1.4,1c-0.9,0.7-1.9,1.4-2.9,2.1
			c-1,0.7-2,1.4-3.1,2.1c-2.2,1.4-4.5,2.9-7,4.4c-1.2,0.8-2.5,1.5-3.9,2.3c-1.3,0.8-2.7,1.6-4.1,2.4c-1.4,0.8-2.9,1.6-4.4,2.4
			c-3,1.6-6.3,3.3-9.7,5.1c-1.3,0.6-2.6,1.3-3.9,2c-2,1-3.9,2.1-5.9,3.2c-17.7,9.9-35.4,23.1-44.1,41.4c-1.4,3-2.5,6-3.1,9.1
			C2191.3,1298.1,2191.1,1299.4,2190.9,1300.6z M2208.2,1294.2c9-18.9,31.2-31.7,47.1-39.6c16.4-8.2,28.8-15.8,38-22.7
			c0.1,7.2-0.2,14.2-0.6,20.9c-1.2,17.1-6,32.5-13.8,44.6c-8.3,12.8-19.9,21.9-34.6,27c-4.9,1.7-9.9,2.6-14.6,2.6
			c-4.3,0-8.2-0.7-11.7-2.2c-6.6-2.8-9.6-7.6-10.9-11.2C2204.8,1307.6,2205.2,1300.6,2208.2,1294.2z"/>
		<path fill="#FFFFFF" d="M2092.5,1338.5C2092.5,1338.5,2092.5,1338.5,2092.5,1338.5c-5.9-2.1-11.3-4.6-16.2-7.6
			C2081.2,1333.9,2086.6,1336.5,2092.5,1338.5C2092.5,1338.5,2092.5,1338.5,2092.5,1338.5z"/>
		<path fill="#FFFFFF" d="M2132.5,1267.8c-1.1-1.1-2.2-2.1-3.3-3.1C2130.3,1265.7,2131.4,1266.7,2132.5,1267.8z"/>
		<path fill="#FFFFFF" d="M2137.1,1272.8c-1-1.1-2-2.3-3-3.4C2135.1,1270.5,2136.1,1271.6,2137.1,1272.8z"/>
		<path fill="#FFFFFF" d="M2127.4,1339.4c0.7-0.3,1.4-0.5,2.1-0.8C2128.8,1338.9,2128.1,1339.2,2127.4,1339.4z"/>
		<path fill="#FFFFFF" d="M2145.5,1284.9c-1.3-2.3-2.7-4.6-4.2-6.7C2142.8,1280.3,2144.2,1282.5,2145.5,1284.9z"/>
		<path fill="#FFFFFF" d="M2120.7,1341.2c0.4-0.1,0.9-0.2,1.3-0.3C2121.6,1341,2121.2,1341.1,2120.7,1341.2z"/>
		<path fill="#FFFFFF" d="M2125.2,1340.1c0.5-0.1,1-0.3,1.5-0.5C2126.2,1339.8,2125.7,1340,2125.2,1340.1z"/>
		<path fill="#FFFFFF" d="M2123,1340.7c0.4-0.1,0.9-0.2,1.3-0.3C2123.9,1340.5,2123.4,1340.6,2123,1340.7z"/>
		<path fill="#FFFFFF" d="M2040.1,1284.5c0.6,1.8,1.3,3.6,2,5.4C2041.4,1288.2,2040.7,1286.4,2040.1,1284.5z"/>
		<path fill="#FFFFFF" d="M2035.3,1198.9c-0.1,1.3-0.2,2.5-0.3,3.6C2035.2,1201.4,2035.3,1200.2,2035.3,1198.9z"/>
		<path fill="#FFFFFF" d="M2034.4,1208.5c-0.1,0.6-0.1,1.1-0.2,1.7C2034.3,1209.7,2034.3,1209.1,2034.4,1208.5z"/>
		<path fill="#FFFFFF" d="M2118.4,1341.5c0.4-0.1,0.8-0.1,1.3-0.2C2119.3,1341.4,2118.9,1341.5,2118.4,1341.5z"/>
		<path fill="#FFFFFF" d="M2120.3,1257.4c-1.9-1.4-3.7-2.7-5.7-4C2116.5,1254.7,2118.4,1256.1,2120.3,1257.4z"/>
		<path fill="#FFFFFF" d="M2035.5,1195.7L2035.5,1195.7c0,1.1-0.1,2.1-0.2,3C2035.4,1197.8,2035.5,1196.8,2035.5,1195.7z"/>
		<path fill="#FFFFFF" d="M2129.2,1264.7c-2.8-2.6-5.8-5-8.9-7.2C2123.4,1259.7,2126.3,1262.1,2129.2,1264.7z"/>
		<path fill="#FFFFFF" d="M2114.6,1253.5c-2.6-1.7-5.2-3.3-7.8-4.9C2109.4,1250.2,2112.1,1251.8,2114.6,1253.5z"/>
		<path fill="#FFFFFF" d="M2034,1213.1c0.1-1,0.1-1.9,0.2-2.8C2034.1,1211.3,2034,1212.2,2034,1213.1c-0.8,13.6-0.9,27.2,0,40.7
			c0.8,10.7,2.8,21,6.1,30.7c-3.3-9.6-5.3-20-6.1-30.7C2033.1,1240.3,2033.2,1226.7,2034,1213.1z"/>
		<path fill="#FFFFFF" d="M2099.5,1340.5c0.3,0.1,0.7,0.1,1,0.2C2100.2,1340.7,2099.8,1340.6,2099.5,1340.5z"/>
		<path fill="#FFFFFF" d="M2067.9,1325.1c2.6,2.1,5.4,4,8.4,5.8C2073.3,1329.2,2070.5,1327.2,2067.9,1325.1z"/>
		<path fill="#FFFFFF" d="M2097.1,1340c0.3,0.1,0.6,0.2,1,0.2C2097.7,1340.1,2097.4,1340,2097.1,1340z"/>
		<path fill="#FFFFFF" d="M2094.8,1339.3c0.3,0.1,0.5,0.2,0.8,0.2C2095.3,1339.4,2095,1339.4,2094.8,1339.3z"/>
		<path fill="#FFFFFF" d="M2048.5,1302.7c0.9,1.5,1.9,3,2.8,4.4C2050.3,1305.7,2049.4,1304.2,2048.5,1302.7z"/>
		<path fill="#FFFFFF" d="M2056.1,1313.5c1.4,1.7,2.9,3.3,4.4,4.9C2058.9,1316.8,2057.5,1315.2,2056.1,1313.5z"/>
		<path fill="#FFFFFF" d="M2052.9,1309.4c1,1.4,2.1,2.8,3.2,4.1C2054.9,1312.2,2053.9,1310.8,2052.9,1309.4z"/>
		<path fill="#FFFFFF" d="M2112,1342c-0.1,0-0.3,0-0.4,0c0.4,0,0.8,0,1.2,0C2112.5,1342,2112.3,1342,2112,1342z"/>
		<path fill="#FFFFFF" d="M2109.1,1341.9c0.4,0,0.7,0,1.1,0C2109.9,1341.9,2109.5,1341.9,2109.1,1341.9z"/>
		<path fill="#FFFFFF" d="M2116.2,1341.8c0.4,0,0.8-0.1,1.3-0.1C2117,1341.7,2116.6,1341.8,2116.2,1341.8z"/>
		<path fill="#FFFFFF" d="M2113.8,1341.9c0.4,0,0.8,0,1.3-0.1C2114.7,1341.9,2114.3,1341.9,2113.8,1341.9z"/>
		<path fill="#FFFFFF" d="M2106.7,1341.7c0.4,0,0.7,0.1,1.1,0.1C2107.4,1341.8,2107.1,1341.7,2106.7,1341.7z"/>
		<path fill="#FFFFFF" d="M2101.9,1341c0.4,0.1,0.7,0.1,1.1,0.2C2102.6,1341.1,2102.2,1341.1,2101.9,1341z"/>
		<path fill="#FFFFFF" d="M2104.3,1341.4c0.4,0.1,0.7,0.1,1.1,0.1C2105,1341.5,2104.6,1341.5,2104.3,1341.4z"/>
		<path fill="#FFFFFF" d="M2034,1253.9c0.8,10.7,2.8,21,6.1,30.7c0.6,1.8,1.3,3.6,2,5.4c1,2.4,2,4.7,3.1,7c1,2,2.1,3.9,3.2,5.8
			c0.9,1.5,1.9,3,2.8,4.4c0.5,0.8,1,1.5,1.6,2.2c1,1.4,2.1,2.8,3.2,4.1c1.4,1.7,2.9,3.3,4.4,4.9c2.3,2.4,4.8,4.6,7.4,6.7
			c2.6,2.1,5.4,4,8.4,5.8c4.9,3,10.3,5.5,16.2,7.6c0,0,0,0,0,0c0.8,0.3,1.5,0.5,2.3,0.7c0.3,0.1,0.5,0.2,0.8,0.2
			c0.5,0.2,1,0.3,1.5,0.4c0.3,0.1,0.6,0.2,1,0.2c0.5,0.1,0.9,0.2,1.4,0.3c0.3,0.1,0.7,0.1,1,0.2c0.5,0.1,0.9,0.2,1.4,0.3
			c0.4,0.1,0.7,0.1,1.1,0.2c0.4,0.1,0.9,0.1,1.3,0.2c0.4,0.1,0.7,0.1,1.1,0.1c0.4,0.1,0.9,0.1,1.3,0.2c0.4,0,0.7,0.1,1.1,0.1
			c0.4,0,0.9,0.1,1.3,0.1c0.4,0,0.7,0,1.1,0c0.4,0,0.9,0,1.3,0c0.4,0,0.8,0,1.2,0c0.4,0,0.7,0,1.1,0c0.4,0,0.8,0,1.3-0.1
			c0.4,0,0.7,0,1.1-0.1c0.4,0,0.8-0.1,1.3-0.1c0.3,0,0.7-0.1,1-0.1c0.4-0.1,0.8-0.1,1.3-0.2c0.3-0.1,0.7-0.1,1-0.2
			c0.4-0.1,0.9-0.2,1.3-0.3c0.3-0.1,0.6-0.1,1-0.2c0.4-0.1,0.9-0.2,1.3-0.3c0.3-0.1,0.6-0.2,0.9-0.2c0.5-0.1,1-0.3,1.5-0.5
			c0.2-0.1,0.5-0.2,0.7-0.2c0.7-0.3,1.4-0.5,2.1-0.8c0,0,0,0,0,0c20.4-8.7,26.4-31.8,17.4-50.8c-0.5-1-1-2-1.5-2.9
			c-1.3-2.3-2.7-4.6-4.2-6.7c-1.3-1.8-2.7-3.6-4.2-5.3c-1-1.1-2-2.3-3-3.4c-0.5-0.5-1.1-1.1-1.6-1.6c-1.1-1.1-2.2-2.1-3.3-3.1
			c-2.8-2.6-5.8-5-8.9-7.2c-1.9-1.4-3.7-2.7-5.7-4c-2.6-1.7-5.2-3.3-7.8-4.9c-0.7-0.4-1.3-0.8-2-1.1c-1.3-0.8-2.6-1.5-3.9-2.2
			c-0.7-0.4-1.3-0.7-2-1.1c-2-1-3.9-2.1-5.9-3c-4.3-2.2-8.3-4.3-12-6.3c-1.5-0.8-2.9-1.6-4.3-2.4c-1.4-0.8-2.7-1.6-4-2.4
			c-3.9-2.3-7.3-4.5-10.5-6.7c-1-0.7-2-1.4-3-2.1c-1.4-1-2.8-2-4.1-3c-1.7-1.3-3.2-2.5-4.7-3.7c-0.4-0.3-0.7-0.6-1-0.9
			c-1.7-1.5-3.2-2.9-4.5-4.2c-0.8-0.8-1.5-1.5-2.2-2.3c-0.2-0.2-0.4-0.5-0.6-0.7c-0.4-0.5-0.8-0.9-1.2-1.4c-0.9-1.1-1.7-2.1-2.3-3
			c-1.2-1.7-1.9-3-2.4-4.1c-0.8-1.6-0.9-2.5-0.9-2.5c0,1.1-0.1,2.1-0.2,3c0,0.1,0,0.1,0,0.2c-0.1,1.3-0.2,2.5-0.3,3.6
			c-0.1,1.2-0.2,2.3-0.3,3.3c-0.1,1-0.2,1.9-0.3,2.8c-0.1,0.6-0.1,1.1-0.2,1.7c0,0.1,0,0.1,0,0.2c-0.1,0.9-0.2,1.8-0.2,2.8
			C2033.2,1226.7,2033.1,1240.3,2034,1253.9z M2048.3,1231.9c9.3,6.9,21.6,14.5,38,22.7c15.9,8,38.1,20.8,47.1,39.6
			c3,6.3,3.5,13.4,1.2,19.4c-1.3,3.6-4.3,8.4-10.9,11.2c-3.5,1.5-7.4,2.2-11.7,2.2c-4.7,0-9.7-0.9-14.6-2.6
			c-14.7-5.1-26.3-14.2-34.6-27c-7.8-12-12.6-27.5-13.8-44.6C2048.5,1246.1,2048.3,1239.1,2048.3,1231.9z"/>
		<path fill="#FFFFFF" d="M2203.6,1366.6c18,10,23.1,15.4,9.4,34.3c0,0,44,10.1,24.8,35.3c-19.2,25.2-35.6,34.8-67,34.8v-147.5
			C2170.8,1323.4,2191.8,1360,2203.6,1366.6z"/>
		<path fill="#DADADA" d="M2170.8,1323.4c0,0-20.9,36.6-32.8,43.2c-18,10-23.1,15.4-9.4,34.3c0,0-44,10.1-24.8,35.3
			c19.2,25.2,35.6,34.8,67,34.8V1323.4z"/>
		<path fill="#C9CFCD" d="M2170.8,1341.5c0,0,7.6,24,28,36.5s0,19.2,0,19.2h-28V1341.5z"/>
		<path fill="#A5AAA9" d="M2170.8,1341.5c0,0-7.6,24-28,36.5s0,19.2,0,19.2h28V1341.5z"/>
		<path fill="#2C3A49" d="M2170.8,1414.1c0,0,30.7-0.6,49.5,4.4c3.4,0.9,5.3,4.8,4.2,8.4l-1.6,5.2c-0.8,2.7-3.1,4.4-5.7,4.4h-46.5
			h-46.5c-2.6,0-4.9-1.8-5.7-4.4l-1.6-5.2c-1.1-3.6,0.8-7.5,4.2-8.4C2140.2,1413.5,2170.8,1414.1,2170.8,1414.1z"/>
		<path fill="#2C3A49" d="M2188.8,1392.9l10,4.3h-28h-28l10-4.3C2164.3,1387.9,2177.3,1387.9,2188.8,1392.9z"/>
	</g>
</g>
</svg>
